<svg id="visual" viewBox="0 0 900 600" width="900" height="600" xmlns="http://www.w3.org/2000/svg" xmlns:xlink="http://www.w3.org/1999/xlink" version="1.1"><rect x="0" y="0" width="900" height="600" fill="#164f37"></rect><path d="M0 449L25 439.7C50 430.3 100 411.7 150 400.3C200 389 250 385 300 394C350 403 400 425 450 434C500 443 550 439 600 425.5C650 412 700 389 750 383.8C800 378.7 850 391.3 875 397.7L900 404L900 601L875 601C850 601 800 601 750 601C700 601 650 601 600 601C550 601 500 601 450 601C400 601 350 601 300 601C250 601 200 601 150 601C100 601 50 601 25 601L0 601Z" fill="#164f37"></path><path d="M0 477L25 472.3C50 467.7 100 458.3 150 445.8C200 433.3 250 417.7 300 421.5C350 425.3 400 448.7 450 456.3C500 464 550 456 600 450.7C650 445.3 700 442.7 750 437.3C800 432 850 424 875 420L900 416L900 601L875 601C850 601 800 601 750 601C700 601 650 601 600 601C550 601 500 601 450 601C400 601 350 601 300 601C250 601 200 601 150 601C100 601 50 601 25 601L0 601Z" fill="#12442f"></path><path d="M0 507L25 500.3C50 493.7 100 480.3 150 478.5C200 476.7 250 486.3 300 481.5C350 476.7 400 457.3 450 451.8C500 446.3 550 454.7 600 461.7C650 468.7 700 474.3 750 475.5C800 476.7 850 473.3 875 471.7L900 470L900 601L875 601C850 601 800 601 750 601C700 601 650 601 600 601C550 601 500 601 450 601C400 601 350 601 300 601C250 601 200 601 150 601C100 601 50 601 25 601L0 601Z" fill="#0f3928"></path><path d="M0 524L25 522.3C50 520.7 100 517.3 150 515.2C200 513 250 512 300 507C350 502 400 493 450 495.7C500 498.3 550 512.7 600 521C650 529.3 700 531.7 750 530.7C800 529.7 850 525.3 875 523.2L900 521L900 601L875 601C850 601 800 601 750 601C700 601 650 601 600 601C550 601 500 601 450 601C400 601 350 601 300 601C250 601 200 601 150 601C100 601 50 601 25 601L0 601Z" fill="#0c2f21"></path><path d="M0 540L25 537.8C50 535.7 100 531.3 150 530.8C200 530.3 250 533.7 300 536.2C350 538.7 400 540.3 450 542.5C500 544.7 550 547.3 600 550.5C650 553.7 700 557.3 750 557.3C800 557.3 850 553.7 875 551.8L900 550L900 601L875 601C850 601 800 601 750 601C700 601 650 601 600 601C550 601 500 601 450 601C400 601 350 601 300 601C250 601 200 601 150 601C100 601 50 601 25 601L0 601Z" fill="#09251a"></path></svg>